<?xml version="1.0" standalone="no"?>
<!DOCTYPE svg PUBLIC "-//W3C//DTD SVG 20010904//EN"
 "http://www.w3.org/TR/2001/REC-SVG-20010904/DTD/svg10.dtd">
<svg version="1.0" xmlns="http://www.w3.org/2000/svg"
 width="1250.000000pt" height="1250.000000pt" viewBox="0 0 1250.000000 1250.000000"
 preserveAspectRatio="xMidYMid meet">

<g transform="translate(0.000000,1250.000000) scale(0.100000,-0.100000)"
fill="#0099c7" stroke="none">
<path d="M5810 11479 c-1082 -35 -1952 -292 -2715 -802 -426 -285 -757 -601
-1053 -1005 -50 -70 -91 -133 -90 -139 3 -11 570 -347 1640 -973 l117 -69 57
77 c96 128 224 271 324 360 386 345 824 546 1350 619 158 21 578 24 720 5 412
-57 708 -190 941 -422 202 -201 291 -417 292 -710 2 -257 -50 -427 -195 -642
-148 -221 -307 -387 -803 -839 -435 -396 -678 -660 -857 -929 -98 -148 -239
-425 -288 -564 -70 -202 -112 -430 -125 -673 l-8 -133 1107 0 1106 0 0 61 c0
34 7 109 16 167 34 228 112 403 282 630 163 218 293 347 843 844 610 551 847
832 1045 1243 156 323 226 591 255 970 44 583 -86 1143 -359 1553 -501 752
-1441 1223 -2687 1346 -135 14 -235 19 -585 30 -58 1 -206 -1 -330 -5z"/>
<path d="M5999 3595 c-279 -38 -510 -137 -713 -306 -225 -187 -368 -421 -427
-699 -27 -127 -32 -387 -10 -510 17 -97 70 -260 111 -341 114 -227 338 -463
555 -585 222 -123 501 -183 795 -170 387 17 691 144 935 391 261 264 386 564
387 930 1 370 -115 659 -367 910 -225 225 -487 345 -840 385 -120 13 -308 11
-426 -5z"/>
</g>
</svg>
