<?xml version="1.0" standalone="no"?>
<!DOCTYPE svg PUBLIC "-//W3C//DTD SVG 20010904//EN"
 "http://www.w3.org/TR/2001/REC-SVG-20010904/DTD/svg10.dtd">
<svg version="1.0" xmlns="http://www.w3.org/2000/svg"
 width="300.000000pt" height="300.000000pt" viewBox="0 0 300.000000 300.000000"
 preserveAspectRatio="xMidYMid meet">

<g transform="translate(0.000000,300.000000) scale(0.100000,-0.100000)"
fill="#900101" stroke="none">
<path d="M1416 2845 c-63 -22 -146 -118 -146 -168 0 -11 -17 -14 -72 -13 -103
1 -173 -40 -221 -129 -21 -39 -22 -53 -25 -410 l-3 -370 -155 3 -154 4 0 -405
0 -405 220 -202 220 -202 0 -204 0 -204 555 0 555 0 0 209 0 210 80 133 80
133 0 746 c0 829 1 814 -65 882 -20 20 -50 45 -68 54 -34 18 -123 23 -169 10
-22 -6 -28 -3 -33 14 -11 33 -65 88 -109 112 -32 17 -57 21 -113 21 -69 -1
-71 0 -76 25 -8 39 -54 104 -91 129 -63 43 -139 53 -210 27z m131 -159 l28
-24 3 -496 3 -496 74 0 75 0 0 399 c0 375 1 400 19 422 25 31 83 32 114 1 22
-23 22 -23 25 -452 l3 -430 74 0 75 0 0 360 0 361 25 24 c33 33 70 32 106 -4
l29 -29 0 -727 0 -727 -80 -133 -80 -133 0 -156 0 -156 -405 0 -405 0 0 163 0
162 -220 200 -219 200 -1 298 0 297 54 0 c39 0 60 -6 79 -21 l27 -20 2 -192 3
-192 72 -3 73 -3 2 645 3 645 22 23 c31 31 89 30 114 -1 18 -22 19 -47 19
-422 l0 -399 75 0 74 0 3 496 3 496 28 24 c36 30 68 30 104 0z"/>
<path d="M1410 1265 l0 -75 75 0 75 0 0 75 0 75 -75 0 -75 0 0 -75z"/>
<path d="M1710 1265 l0 -75 75 0 75 0 0 75 0 75 -75 0 -75 0 0 -75z"/>
</g>
</svg>
