<?xml version="1.0" standalone="no"?>
<!DOCTYPE svg PUBLIC "-//W3C//DTD SVG 20010904//EN"
 "http://www.w3.org/TR/2001/REC-SVG-20010904/DTD/svg10.dtd">
<svg version="1.0" xmlns="http://www.w3.org/2000/svg"
 width="300.000000pt" height="300.000000pt" viewBox="0 0 300.000000 300.000000"
 preserveAspectRatio="xMidYMid meet">

<g transform="translate(0.000000,300.000000) scale(0.100000,-0.100000)"
fill="#900101" stroke="none">
<path d="M961 2859 c-75 -22 -151 -131 -151 -217 0 -17 29 -216 65 -442 36
-226 65 -420 65 -431 0 -17 -7 -19 -57 -19 -97 -1 -175 -50 -214 -135 -17 -36
-19 -71 -19 -355 l0 -315 140 -195 139 -195 1 -212 0 -213 595 0 595 0 0 208
1 207 114 128 115 128 0 432 c0 481 0 476 -70 544 -49 48 -107 67 -185 60 -64
-5 -66 -4 -80 22 -35 68 -123 121 -202 121 -18 0 -33 3 -33 8 0 4 30 151 66
327 l67 320 -17 58 c-41 142 -186 207 -322 143 -94 -44 -105 -70 -174 -405
-46 -221 -60 -279 -60 -242 0 37 -82 527 -92 545 -56 109 -169 158 -287 125z
m129 -159 c11 -11 22 -30 25 -42 23 -100 145 -927 145 -985 l0 -73 75 0 75 0
0 71 c0 52 26 198 95 527 52 250 95 459 95 463 0 5 10 17 22 29 44 40 120 17
133 -42 2 -13 -40 -232 -94 -488 -53 -256 -97 -466 -96 -467 3 -5 140 -31 143
-28 3 2 11 34 18 71 8 38 22 73 32 80 28 22 80 17 107 -11 24 -23 25 -29 25
-155 l0 -130 75 0 75 0 0 60 c0 51 4 65 25 85 31 32 80 33 112 3 l23 -21 0
-396 -1 -396 -114 -128 -115 -128 0 -159 0 -160 -445 0 -445 0 0 161 0 160
-140 196 -140 196 0 283 0 283 26 20 c20 15 41 21 80 21 l54 0 0 -140 0 -140
75 0 75 0 0 178 c0 174 -2 192 -75 652 -41 260 -75 484 -75 497 0 59 88 95
130 53z"/>
<path d="M1300 1105 l0 -75 75 0 75 0 0 75 0 75 -75 0 -75 0 0 -75z"/>
<path d="M1600 1105 l0 -75 75 0 75 0 0 75 0 75 -75 0 -75 0 0 -75z"/>
</g>
</svg>
