<?xml version="1.0" standalone="no"?>
<!DOCTYPE svg PUBLIC "-//W3C//DTD SVG 20010904//EN"
 "http://www.w3.org/TR/2001/REC-SVG-20010904/DTD/svg10.dtd">
<svg version="1.0" xmlns="http://www.w3.org/2000/svg"
 width="300.000000pt" height="300.000000pt" viewBox="0 0 300.000000 300.000000"
 preserveAspectRatio="xMidYMid meet">

<g transform="translate(0.000000,300.000000) scale(0.100000,-0.100000)"
fill="#00d17d" stroke="none">
<path d="M1394 2649 c-23 -11 -49 -28 -59 -39 -16 -18 -18 -18 -58 1 -58 26
-130 24 -193 -5 -93 -43 -134 -126 -134 -273 l0 -83 -56 0 c-107 0 -183 -41
-227 -123 -21 -41 -22 -53 -25 -363 l-3 -322 220 -202 221 -203 0 -353 0 -354
555 0 555 0 0 359 0 359 80 135 81 134 -3 504 c-3 498 -3 505 -25 545 -47 88
-123 129 -228 122 l-70 -5 -27 43 c-55 89 -185 129 -281 86 -45 -20 -46 -20
-63 -1 -53 58 -182 78 -260 38z m146 -139 c30 -16 40 -67 40 -211 l0 -139 75
0 75 0 0 137 c0 127 2 138 22 160 24 26 72 30 100 9 31 -23 38 -65 38 -217 l0
-149 75 0 75 0 0 97 c0 86 3 99 22 120 21 23 59 30 93 17 43 -17 45 -39 45
-520 l0 -456 -80 -133 -80 -133 0 -306 0 -306 -405 0 -405 0 0 313 0 312 -220
200 -220 200 3 278 2 279 24 19 c16 13 39 19 77 19 l54 0 2 -212 3 -213 73 -3
72 -3 0 371 c0 389 3 417 45 434 32 12 69 6 92 -16 22 -20 23 -28 23 -160 l0
-138 75 0 75 0 0 139 c0 142 8 186 37 209 20 14 67 16 93 2z"/>
<path d="M1410 1755 l0 -75 75 0 75 0 0 75 0 75 -75 0 -75 0 0 -75z"/>
<path d="M1710 1755 l0 -75 75 0 75 0 0 75 0 75 -75 0 -75 0 0 -75z"/>
</g>
</svg>
